<?xml version="1.0" standalone="no"?>
<!DOCTYPE svg PUBLIC "-//W3C//DTD SVG 20010904//EN"
 "http://www.w3.org/TR/2001/REC-SVG-20010904/DTD/svg10.dtd">
<svg version="1.0" xmlns="http://www.w3.org/2000/svg"
 width="768.000000pt" height="768.000000pt" viewBox="0 0 768.000000 768.000000"
 preserveAspectRatio="xMidYMid meet">
<metadata>
Created by potrace 1.14, written by Peter Selinger 2001-2017
</metadata>
<g transform="translate(0.000000,768.000000) scale(0.100000,-0.100000)"
fill="#000000" stroke="none">
<path d="M3580 5527 l0 -757 90 0 90 0 0 624 0 625 -90 132 -90 132 0 -756z"/>
<path d="M3848 4938 l-3 -233 -386 -5 -387 -5 207 -457 206 -457 3 290 2 291
-35 58 c-19 32 -35 60 -35 64 0 8 74 8 123 0 l37 -7 0 -770 0 -770 88 -151 87
-151 3 923 2 923 43 -3 42 -3 3 -600 3 -600 354 705 c195 387 353 705 352 706
-1 1 -102 -1 -224 -4 l-223 -5 0 -98 c0 -73 3 -99 13 -99 40 -1 37 -17 -20
-136 l-58 -119 -5 376 -5 376 -92 97 -93 96 -2 -232z"/>
<path d="M3938 3313 l-88 -172 0 -553 0 -554 92 -172 c50 -95 92 -171 92 -170
1 2 -1 406 -4 898 l-5 895 -87 -172z"/>
</g>
</svg>
